<svg width="200" height="200" viewBox="0 0 200 200" fill="none" xmlns="http://www.w3.org/2000/svg">
<path fill-rule="evenodd" clip-rule="evenodd" d="M99.9917 8.33334C49.3834 8.33334 8.33337 49.375 8.33337 100C8.33337 140.5 34.6 174.858 71.025 186.975C75.6084 187.825 77.275 184.992 77.275 182.558C77.275 180.392 77.2 174.625 77.1584 166.975C51.6584 172.508 46.275 154.683 46.275 154.683C42.1084 144.1 36.1 141.267 36.1 141.267C27.775 135.592 36.725 135.7 36.725 135.7C45.9334 136.35 50.7667 145.15 50.7667 145.15C58.9417 159.15 72.225 155.108 77.45 152.767C78.2834 146.85 80.65 142.808 83.2667 140.517C62.9167 138.2 41.5167 130.333 41.5167 95.2084C41.5167 85.2084 45.0834 77.0167 50.95 70.6083C50 68.2917 46.8584 58.9667 51.85 46.3583C51.85 46.3583 59.5417 43.8833 77.0584 55.75C84.536 53.7143 92.2503 52.6775 100 52.6667C107.753 52.6722 115.471 53.7091 122.95 55.75C140.45 43.8833 148.133 46.35 148.133 46.35C153.133 58.9667 149.992 68.2917 149.05 70.6083C154.925 77.0167 158.467 85.2 158.467 95.2084C158.467 130.425 137.033 138.175 116.617 140.442C119.908 143.275 122.842 148.858 122.842 157.417C122.842 169.667 122.725 179.558 122.725 182.558C122.725 185.017 124.383 187.867 129.025 186.975C165.425 174.825 191.667 140.492 191.667 100C191.667 49.375 150.617 8.33334 99.9917 8.33334Z" fill="black"/>
</svg>
